<?xml version="1.0" encoding="UTF-8" standalone="no"?>
<!-- Created with Inkscape (http://www.inkscape.org/) -->

<svg
   xmlns:dc="http://purl.org/dc/elements/1.1/"
   xmlns:cc="http://creativecommons.org/ns#"
   xmlns:rdf="http://www.w3.org/1999/02/22-rdf-syntax-ns#"
   xmlns:svg="http://www.w3.org/2000/svg"
   xmlns="http://www.w3.org/2000/svg"
   xmlns:sodipodi="http://sodipodi.sourceforge.net/DTD/sodipodi-0.dtd"
   xmlns:inkscape="http://www.inkscape.org/namespaces/inkscape"
   version="1.1"
   id="svg64"
   width="300"
   height="300"
   viewBox="0 0 300 300"
   sodipodi:docname="orqal.svg"
   inkscape:version="0.92.2 5c3e80d, 2017-08-06">
  <title
     id="title13">Orque Logo</title>
  <metadata
     id="metadata70">
    <rdf:RDF>
      <cc:Work
         rdf:about="">
        <dc:format>image/svg+xml</dc:format>
        <dc:type
           rdf:resource="http://purl.org/dc/dcmitype/StillImage" />
        <dc:title>Orque Logo</dc:title>
        <dc:date>28 April 2019</dc:date>
        <dc:creator>
          <cc:Agent>
            <dc:title>Sebastien Campion</dc:title>
          </cc:Agent>
        </dc:creator>
        <dc:rights>
          <cc:Agent>
            <dc:title>Sebastien Campion</dc:title>
          </cc:Agent>
        </dc:rights>
      </cc:Work>
    </rdf:RDF>
  </metadata>
  <defs
     id="defs68" />
  <sodipodi:namedview
     pagecolor="#ffffff"
     bordercolor="#666666"
     borderopacity="1"
     objecttolerance="10"
     gridtolerance="10"
     guidetolerance="10"
     inkscape:pageopacity="0"
     inkscape:pageshadow="2"
     inkscape:window-width="1899"
     inkscape:window-height="1010"
     id="namedview66"
     showgrid="false"
     inkscape:zoom="2.19"
     inkscape:cx="79.570953"
     inkscape:cy="121.83233"
     inkscape:window-x="51"
     inkscape:window-y="1"
     inkscape:window-maximized="0"
     inkscape:current-layer="text3979"
     showguides="true"
     inkscape:guide-bbox="true">
    <sodipodi:guide
       position="-172.60274,280.3653"
       orientation="0,1"
       id="guide18"
       inkscape:locked="false" />
  </sodipodi:namedview>
  <flowRoot
     xml:space="preserve"
     id="flowRoot3969"
     style="font-style:normal;font-weight:normal;font-size:40px;line-height:1.25;font-family:sans-serif;letter-spacing:0px;word-spacing:0px;fill:#000000;fill-opacity:1;stroke:none"
     transform="translate(0,43)"><flowRegion
       id="flowRegion3971"><rect
         id="rect3973"
         width="246.06741"
         height="56.741573"
         x="6.7415729"
         y="198.57303" /></flowRegion><flowPara
       id="flowPara3975" /></flowRoot>  <path
     style="stroke-width:0.2865791"
     d="m 240.71158,218.72238 c -2.65921,-2.18401 -5.12337,-5.64277 -9.03522,-12.68205 -3.99341,-7.18606 -5.73478,-9.42956 -7.25435,-9.34617 -0.43595,0.0239 -1.75497,0.0396 -2.93113,0.0348 -1.89116,-0.007 -2.36465,0.1089 -4.09409,1.00783 -1.07558,0.55907 -2.65442,1.5688 -3.50853,2.24384 -7.81427,6.17596 -10.48999,7.82089 -13.69292,8.41791 -1.72907,0.32229 -3.67126,0.19212 -5.17137,-0.3466 -1.55481,-0.55836 -3.44142,-5.25693 -3.44142,-8.57079 0,-2.09985 0.9071,-5.50765 2.13581,-8.02382 1.98154,-4.05781 3.66992,-6.4303 11.96491,-16.81285 1.71747,-2.14971 3.11964,-4.04764 3.11593,-4.21762 -0.004,-0.16999 -0.83387,-1.50087 -1.8448,-2.95752 -5.46043,-7.8678 -11.55715,-13.15414 -17.95146,-15.56534 -4.7499,-1.79111 -7.38425,-2.15021 -21.13786,-2.88144 -3.1835,-0.16926 -7.1223,-0.54608 -8.75287,-0.83739 -1.63057,-0.29131 -3.00543,-0.49481 -3.05524,-0.45222 -0.0499,0.0426 0.91104,1.36616 2.13524,2.94131 4.75464,6.1177 7.96476,11.24579 9.26161,14.79518 0.8792,2.40629 1.07339,4.91126 0.62959,8.1213 l -0.35951,2.60034 -1.51724,0.93791 c -2.77774,1.71711 -5.08041,2.29784 -9.07091,2.28765 -2.94134,-0.007 -3.9856,-0.13895 -6.26752,-0.78895 -2.12608,-0.60559 -8.39878,-3.01283 -13.99115,-5.36928 -0.26681,-0.11244 -0.35293,0.48636 -0.35293,2.45371 0,6.27787 -2.20269,10.62706 -6.4092,12.65492 l -1.80043,0.86795 -1.89514,-0.48943 c -7.61142,-1.96568 -12.58724,-6.37302 -20.53787,-18.19147 -1.66816,-2.47967 -3.13013,-4.6196 -3.24883,-4.75538 -0.1187,-0.13579 -1.14985,0.40018 -2.29144,1.19103 -5.635307,3.90394 -11.931689,7.3737 -16.737842,9.22376 -4.133754,1.59122 -7.364223,2.2474 -11.031705,2.2408 -3.932486,-0.007 -6.50122,-0.67243 -10.781121,-2.79256 -3.628828,-1.79759 -3.437642,-1.57134 -6.159355,-7.28918 -11.45629,-24.06766 -5.394773,-46.39729 17.840672,-65.72209 10.553239,-8.777068 26.722711,-17.772055 42.433821,-23.605657 3.49984,-1.299511 3.76801,-1.454784 4.55972,-2.640213 3.40892,-5.104216 4.85684,-11.903494 5.7493,-26.99816 0.75805,-12.821405 1.27739,-17.072743 2.57378,-21.069243 1.2118,-3.73572 3.016,-6.341906 5.37717,-7.767401 1.57918,-0.95339 2.60026,-0.739299 4.10815,0.861363 1.83709,1.950118 3.6138,6.284668 7.70534,18.798391 4.33687,13.264057 6.23256,18.3795 8.68255,23.42956 3.30926,6.82122 5.90824,10.379342 9.9276,13.591399 5.9314,4.740053 9.50218,6.58025 19.36976,9.982219 10.71282,3.693368 17.27085,7.168044 26.60704,14.097332 6.75811,5.01585 9.70766,8.43766 12.64877,14.67403 1.91659,4.06397 3.03152,7.39806 4.04056,12.0829 1.77974,8.26312 2.29985,14.96173 2.28669,29.45066 -0.007,8.15684 0.0801,11.56211 0.29725,11.56211 0.52226,0 5.27265,2.91316 7.06027,4.32969 6.68994,5.30119 11.32687,13.57392 12.7324,22.7159 0.62714,4.07906 0.43044,10.52955 -0.42148,13.82174 -0.81706,3.15749 -2.27674,6.23026 -3.73245,7.85717 -1.09835,1.22753 -2.40808,2.18126 -2.98783,2.17572 -0.12418,-0.001 -0.92461,-0.57611 -1.77872,-1.27759 z M 81.998708,172.26115 c 5.216205,-2.82689 10.059447,-5.82501 19.252502,-11.9179 10.84122,-7.18526 12.66217,-8.16745 13.88851,-7.49133 0.31175,0.17187 2.10609,1.83639 3.98744,3.69895 4.67708,4.63036 9.671,9.2994 12.86417,12.02732 2.51877,2.15178 5.5097,3.97521 5.88547,3.58811 0.53299,-0.54909 -2.77747,-4.75316 -7.46933,-9.48559 -4.0613,-4.09642 -8.1775,-7.57152 -12.3773,-10.44951 -1.55293,-1.06419 -3.39527,-2.48526 -4.09409,-3.15796 -1.71609,-1.65194 -3.79607,-2.61733 -6.52047,-3.02641 -2.19919,-0.3302 -2.34824,-0.31402 -4.72221,0.51245 -2.915788,1.01511 -9.645357,4.47157 -14.168887,7.27747 -4.326843,2.6839 -11.119801,7.40216 -19.169899,13.31504 l -6.605288,4.85166 1.522974,0.69315 c 1.318321,0.60002 2.22803,0.85519 5.193534,1.45678 0.310586,0.0631 2.396363,0.12974 4.635061,0.1483 l 4.070359,0.0337 z M 210.31781,159.42829 c -0.92807,-5.18474 -2.39557,-8.0715 -5.26085,-10.34875 -2.21906,-1.76365 -5.53328,-3.74928 -9.30764,-5.57641 -1.8176,-0.87989 -3.30809,-1.74406 -3.31222,-1.92037 -0.0137,-0.58583 1.26312,-2.27412 2.22481,-2.94176 1.28238,-0.89026 2.31945,-1.16399 6.94409,-1.83279 4.90252,-0.70899 6.67019,-1.50329 7.66494,-3.44421 l 0.64964,-1.26757 -0.89307,-1.35027 c -1.33382,-2.01663 -3.92518,-4.47812 -5.77857,-5.48896 -2.50876,-1.36827 -4.36965,-1.82415 -7.44618,-1.82415 -4.80918,0 -10.4791,1.92943 -17.32886,5.8969 -2.68965,1.55788 -15.94496,10.50438 -17.92125,12.09572 l -0.67719,0.54528 1.66542,0.20495 c 4.31658,0.53122 13.89413,2.02031 17.19471,2.67339 8.56842,1.69543 13.76873,3.32976 18.9175,5.94534 4.15803,2.11228 7.48896,4.65118 10.61209,8.08875 1.30683,1.43841 2.38822,2.62393 2.40307,2.6345 0.0149,0.0106 -0.14282,-0.92973 -0.35044,-2.08959 z M 86.416888,145.37887 c 4.813911,-1.29169 9.441571,-5.71892 12.145987,-11.61991 2.380205,-5.19359 2.723535,-9.82368 0.922052,-12.43473 -0.46864,-0.67923 -0.751283,-0.79925 -1.873826,-0.79559 -0.727069,0.002 -2.116748,0.19734 -3.088179,0.43329 -11.555942,2.80683 -20.934875,13.86305 -18.162707,21.41086 0.329863,0.89812 0.841158,1.85801 1.136212,2.13308 1.326673,1.23686 5.897405,1.68417 8.920461,0.873 z"
     id="path3800"
     inkscape:connector-curvature="0" />
  <g
     aria-label="ORQAL"
     transform="scale(0.99813627,1.0018672)"
     style="font-style:normal;font-weight:normal;font-size:40.40758514px;line-height:1.25;font-family:sans-serif;letter-spacing:0px;word-spacing:0px;fill:#000000;fill-opacity:1;stroke:none;stroke-width:1.01018965"
     id="text3979">
    <path
       id="path5206"
       style="font-style:normal;font-variant:normal;font-weight:normal;font-stretch:normal;font-size:64.65213776px;font-family:Righteous;-inkscape-font-specification:Righteous;stroke-width:1.01018965"
       d="m 260.48545,270.41803 h -31.6947 v -45.26912 h 9.06014 v 36.20898 h 22.63456 z m -48.61539,-18.08871 v -9.06014 q 0,-1.86253 -0.72607,-3.50409 -0.69451,-1.67313 -1.92568,-2.9043 -1.23116,-1.23117 -2.90429,-1.92567 -1.64156,-0.72608 -3.5041,-0.72608 -1.86253,0 -3.53566,0.72608 -1.64156,0.6945 -2.87273,1.92567 -1.23116,1.23117 -1.95724,2.9043 -0.6945,1.64156 -0.6945,3.50409 v 9.06014 z m 9.06014,18.08871 h -9.06014 v -9.06014 h -18.12027 v 9.06014 h -9.02857 v -27.14885 q 0,-3.75664 1.42058,-7.03976 1.42057,-3.31468 3.85134,-5.77702 2.46234,-2.46234 5.74546,-3.88291 3.31468,-1.42058 7.07132,-1.42058 3.75665,0 7.03976,1.42058 3.31469,1.42057 5.77703,3.88291 2.46233,2.46234 3.88291,5.77702 1.42058,3.28312 1.42058,7.03976 z m -47.66832,9.06014 h -10.2913 l -5.42977,-8.14466 q -0.44196,0.0631 -0.85235,0.0631 -0.37882,0 -0.75764,0 -3.21998,0 -6.21898,-0.85235 -2.96743,-0.82078 -5.58761,-2.33606 -2.58861,-1.54685 -4.73527,-3.69351 -2.14665,-2.14665 -3.6935,-4.73526 -1.51529,-2.62018 -2.36763,-5.58761 -0.82078,-2.999 -0.82078,-6.21898 0,-3.21998 0.82078,-6.21898 0.85234,-2.999 2.36763,-5.58761 1.54685,-2.58861 3.6935,-4.73527 2.14666,-2.14665 4.73527,-3.66193 2.62018,-1.51529 5.58761,-2.33607 2.999,-0.85235 6.21898,-0.85235 3.21998,0 6.21898,0.85235 2.999,0.82078 5.58761,2.33607 2.58861,1.51528 4.73526,3.66193 2.14666,2.14666 3.66194,4.73527 1.51529,2.58861 2.33607,5.58761 0.85234,2.999 0.85234,6.21898 0,3.34625 -0.94705,6.50309 -0.91548,3.15685 -2.62018,5.9033 -1.70469,2.71488 -4.13546,4.92467 -2.3992,2.20979 -5.36664,3.69351 z m -2.93586,-31.50529 q 0,-2.96743 -1.13646,-5.58761 -1.13647,-2.65175 -3.09371,-4.57742 -1.92567,-1.95725 -4.57742,-3.09371 -2.62018,-1.13646 -5.58761,-1.13646 -2.999,0 -5.61918,1.13646 -2.62018,1.13646 -4.57742,3.09371 -1.95725,1.92567 -3.09371,4.57742 -1.13646,2.62018 -1.13646,5.58761 0,2.96743 1.13646,5.58761 1.13646,2.58861 3.09371,4.54585 1.95724,1.95725 4.57742,3.09371 2.62018,1.13646 5.61918,1.13646 2.96743,0 5.58761,-1.13646 2.65175,-1.13646 4.57742,-3.09371 1.95724,-1.95724 3.09371,-4.54585 1.13646,-2.62018 1.13646,-5.58761 z M 101.8541,234.20904 v 18.12028 h 9.06014 q 1.86253,0 3.50409,-0.6945 1.64156,-0.72608 2.87273,-1.95725 1.23117,-1.23117 1.92567,-2.87272 0.72608,-1.67313 0.72608,-3.53567 0,-1.86253 -0.72608,-3.50409 -0.6945,-1.67313 -1.92567,-2.9043 -1.23117,-1.23117 -2.87273,-1.92567 -1.64156,-0.72608 -3.50409,-0.72608 z m 0,36.20899 h -9.060139 v -45.26912 h 18.120279 q 2.4939,0 4.7984,0.66293 2.30449,0.63137 4.2933,1.83097 2.02038,1.16803 3.66194,2.84116 1.67313,1.64156 2.84116,3.66194 1.1996,2.02038 1.83097,4.32487 0.66294,2.3045 0.66294,4.7984 0,2.33607 -0.5998,4.54586 -0.56824,2.20979 -1.67313,4.1986 -1.07333,1.98881 -2.65175,3.66193 -1.57842,1.67313 -3.53566,2.9043 l 5.01938,11.83816 h -9.62837 l -3.94606,-9.12328 -10.13346,0.0631 z M 86.890665,247.97288 q 0,3.21998 -0.852348,6.21898 -0.820779,2.96743 -2.336063,5.58761 -1.515285,2.58861 -3.661938,4.73526 -2.146653,2.14666 -4.735264,3.69351 -2.588611,1.51528 -5.587611,2.33606 -2.999001,0.85235 -6.21898,0.85235 -3.21998,0 -6.21898,-0.85235 -2.967432,-0.82078 -5.587612,-2.33606 -2.588611,-1.54685 -4.735264,-3.69351 -2.146653,-2.14665 -3.693506,-4.73526 -1.515284,-2.62018 -2.367632,-5.58761 -0.820779,-2.999 -0.820779,-6.21898 0,-3.21998 0.820779,-6.21898 0.852348,-2.999 2.367632,-5.58761 1.546853,-2.58861 3.693506,-4.73527 2.146653,-2.14665 4.735264,-3.66193 2.62018,-1.51529 5.587612,-2.33607 2.999,-0.85235 6.21898,-0.85235 3.219979,0 6.21898,0.85235 2.999,0.82078 5.587611,2.33607 2.588611,1.51528 4.735264,3.66193 2.146653,2.14666 3.661938,4.73527 1.515284,2.58861 2.336063,5.58761 0.852348,2.999 0.852348,6.21898 z m -8.997002,0 q 0,-2.96743 -1.136463,-5.58761 -1.136463,-2.65175 -3.093706,-4.57742 -1.925674,-1.95725 -4.577422,-3.09371 -2.620179,-1.13646 -5.587611,-1.13646 -2.999001,0 -5.61918,1.13646 -2.62018,1.13646 -4.577422,3.09371 -1.957243,1.92567 -3.093706,4.57742 -1.136463,2.62018 -1.136463,5.58761 0,2.96743 1.136463,5.58761 1.136463,2.58861 3.093706,4.54585 1.957242,1.95725 4.577422,3.09371 2.620179,1.13646 5.61918,1.13646 2.967432,0 5.587611,-1.13646 2.651748,-1.13646 4.577422,-3.09371 1.957243,-1.95724 3.093706,-4.54585 1.136463,-2.62018 1.136463,-5.58761 z" />
  </g>
  <text
     xml:space="preserve"
     style="font-style:normal;font-weight:normal;font-size:40px;line-height:1.25;font-family:sans-serif;letter-spacing:0px;word-spacing:0px;fill:#000000;fill-opacity:1;stroke:none"
     x="284.01825"
     y="245.20547"
     id="text16"><tspan
       sodipodi:role="line"
       id="tspan14"
       x="284.01825"
       y="280.5961" /></text>
</svg>
