<?xml version="1.0" encoding="UTF-8" standalone="no"?>
<!-- Created with Inkscape (http://www.inkscape.org/) -->

<svg
   xmlns:dc="http://purl.org/dc/elements/1.1/"
   xmlns:cc="http://creativecommons.org/ns#"
   xmlns:rdf="http://www.w3.org/1999/02/22-rdf-syntax-ns#"
   xmlns:svg="http://www.w3.org/2000/svg"
   xmlns="http://www.w3.org/2000/svg"
   xmlns:sodipodi="http://sodipodi.sourceforge.net/DTD/sodipodi-0.dtd"
   xmlns:inkscape="http://www.inkscape.org/namespaces/inkscape"
   version="1.1"
   id="svg64"
   width="220"
   height="55"
   viewBox="0 0 220 55"
   sodipodi:docname="orqal_text.svg"
   inkscape:version="0.92.2 5c3e80d, 2017-08-06">
  <title
     id="title13">Orque Logo</title>
  <metadata
     id="metadata70">
    <rdf:RDF>
      <cc:Work
         rdf:about="">
        <dc:format>image/svg+xml</dc:format>
        <dc:type
           rdf:resource="http://purl.org/dc/dcmitype/StillImage" />
        <dc:title>Orque Logo</dc:title>
        <dc:date>28 April 2019</dc:date>
        <dc:creator>
          <cc:Agent>
            <dc:title>Sebastien Campion</dc:title>
          </cc:Agent>
        </dc:creator>
        <dc:rights>
          <cc:Agent>
            <dc:title>Sebastien Campion</dc:title>
          </cc:Agent>
        </dc:rights>
      </cc:Work>
    </rdf:RDF>
  </metadata>
  <defs
     id="defs68" />
  <sodipodi:namedview
     pagecolor="#ffffff"
     bordercolor="#666666"
     borderopacity="1"
     objecttolerance="10"
     gridtolerance="10"
     guidetolerance="10"
     inkscape:pageopacity="0"
     inkscape:pageshadow="2"
     inkscape:window-width="1899"
     inkscape:window-height="1010"
     id="namedview66"
     showgrid="false"
     inkscape:zoom="2.19"
     inkscape:cx="-2.1642068"
     inkscape:cy="121.83233"
     inkscape:window-x="0"
     inkscape:window-y="0"
     inkscape:window-maximized="0"
     inkscape:current-layer="text3979"
     showguides="false"
     inkscape:guide-bbox="true">
    <sodipodi:guide
       position="-172.60274,280.3653"
       orientation="0,1"
       id="guide18"
       inkscape:locked="false" />
  </sodipodi:namedview>
  <flowRoot
     xml:space="preserve"
     id="flowRoot3969"
     style="font-style:normal;font-weight:normal;font-size:40px;line-height:1.25;font-family:sans-serif;letter-spacing:0px;word-spacing:0px;fill:#000000;fill-opacity:1;stroke:none"
     transform="translate(0,-202)"><flowRegion
       id="flowRegion3971"><rect
         id="rect3973"
         width="246.06741"
         height="56.741573"
         x="6.7415729"
         y="198.57303" /></flowRegion><flowPara
       id="flowPara3975" /></flowRoot>  <g
     aria-label="ORQAL"
     transform="scale(0.99813627,1.0018672)"
     style="font-style:normal;font-weight:normal;font-size:40.40758514px;line-height:1.25;font-family:sans-serif;letter-spacing:0px;word-spacing:0px;fill:#000000;fill-opacity:1;stroke:none;stroke-width:1.01018965"
     id="text3979">
    <path
       d="m 46.815977,23.392205 q 0,3.21998 -0.852348,6.21898 -0.820779,2.967432 -2.336063,5.587612 -1.515285,2.588611 -3.661938,4.735264 -2.146653,2.146653 -4.735264,3.693506 -2.588611,1.515284 -5.587611,2.336063 -2.999001,0.852348 -6.21898,0.852348 -3.21998,0 -6.218981,-0.852348 Q 14.23736,45.142851 11.617181,43.627567 9.02857,42.080714 6.881917,39.934061 4.7352639,37.787408 3.188411,35.198797 1.6731266,32.578617 0.82077904,29.611185 -4.8428774e-8,26.612185 -4.8428774e-8,23.392205 q 0,-3.219979 0.820779088428774,-6.21898 Q 1.6731266,14.174225 3.188411,11.585614 4.7352639,8.9970027 6.881917,6.8503497 9.02857,4.7036967 11.617181,3.1884122 14.23736,1.6731277 17.204792,0.85234861 20.203793,1.0877848e-6 23.423773,1.0877848e-6 q 3.219979,0 6.21898,0.8523475222152 2.999,0.82077909 5.587611,2.33606359 2.588611,1.5152845 4.735264,3.6619375 2.146653,2.146653 3.661938,4.7352643 1.515284,2.588611 2.336063,5.587611 0.852348,2.999001 0.852348,6.21898 z m -8.997002,0 q 0,-2.967432 -1.136463,-5.587611 -1.136464,-2.651748 -3.093706,-4.577422 -1.925674,-1.957243 -4.577422,-3.093706 -2.620179,-1.1364633 -5.587611,-1.1364633 -2.999001,0 -5.61918,1.1364633 -2.62018,1.136463 -4.577422,3.093706 -1.957243,1.925674 -3.093706,4.577422 -1.1364635,2.620179 -1.1364635,5.587611 0,2.967432 1.1364635,5.587612 1.136463,2.588611 3.093706,4.545853 1.957242,1.957243 4.577422,3.093706 2.620179,1.136463 5.61918,1.136463 2.967432,0 5.587611,-1.136463 2.651748,-1.136463 4.577422,-3.093706 1.957242,-1.957242 3.093706,-4.545853 1.136463,-2.62018 1.136463,-5.587612 z"
       style="font-style:normal;font-variant:normal;font-weight:normal;font-stretch:normal;font-size:64.65213776px;font-family:Righteous;-inkscape-font-specification:Righteous;stroke-width:1.01018965"
       id="path821" />
    <path
       d="M 61.779411,9.6283712 V 27.748648 h 9.060138 q 1.862537,0 3.504096,-0.694505 1.641558,-0.726074 2.872726,-1.957243 1.231169,-1.231168 1.925674,-2.872727 0.726074,-1.673126 0.726074,-3.535663 0,-1.862538 -0.726074,-3.504096 Q 78.44754,13.511288 77.216371,12.280119 75.985203,11.04895 74.343645,10.354445 72.702086,9.6283712 70.839549,9.6283712 Z m 0,36.2089858 H 52.719272 V 0.56823277 h 18.120277 q 2.493906,0 4.798401,0.66293693 2.304495,0.6313686 4.293306,1.8309688 2.020379,1.1680318 3.661938,2.8411584 1.673126,1.6415582 2.841158,3.6619375 1.1996,2.0203796 1.830969,4.3248746 0.662937,2.304495 0.662937,4.798401 0,2.336063 -0.5998,4.545853 -0.568232,2.20979 -1.673127,4.198601 -1.073327,1.988811 -2.651748,3.661937 -1.578421,1.673127 -3.535664,2.904296 l 5.01938,11.83816 h -9.62837 l -3.946053,-9.123276 -10.133465,0.06314 z"
       style="font-style:normal;font-variant:normal;font-weight:normal;font-stretch:normal;font-size:64.65213776px;font-family:Righteous;-inkscape-font-specification:Righteous;stroke-width:1.01018965"
       id="path823" />
    <path
       d="m 133.1872,54.897495 h -10.29131 l -5.42977,-8.144654 q -0.44196,0.06314 -0.85235,0.06314 -0.37882,0 -0.75764,0 -3.21998,0 -6.21898,-0.852348 -2.96743,-0.820779 -5.58761,-2.336063 -2.58861,-1.546853 -4.735265,-3.693506 -2.146653,-2.146653 -3.693506,-4.735264 -1.515285,-2.62018 -2.367632,-5.587612 -0.820779,-2.999 -0.820779,-6.21898 0,-3.219979 0.820779,-6.21898 0.852347,-2.999 2.367632,-5.587611 1.546853,-2.5886113 3.693506,-4.7352643 2.146655,-2.146653 4.735265,-3.6619375 2.62018,-1.5152845 5.58761,-2.33606359 2.999,-0.8523475222152 6.21898,-0.8523475222152 3.21998,0 6.21898,0.8523475222152 2.999,0.82077909 5.58761,2.33606359 2.58861,1.5152845 4.73527,3.6619375 2.14665,2.146653 3.66193,4.7352643 1.51529,2.588611 2.33607,5.587611 0.85234,2.999001 0.85234,6.21898 0,3.346253 -0.94705,6.503096 -0.91548,3.156843 -2.62018,5.903296 -1.70469,2.714885 -4.13546,4.924674 -2.3992,2.20979 -5.36663,3.693506 z m -2.93587,-31.50529 q 0,-2.967432 -1.13646,-5.587611 -1.13646,-2.651748 -3.09371,-4.577422 -1.92567,-1.957243 -4.57742,-3.093706 -2.62018,-1.1364633 -5.58761,-1.1364633 -2.999,0 -5.61918,1.1364633 -2.62018,1.136463 -4.57742,3.093706 -1.95724,1.925674 -3.09371,4.577422 -1.13646,2.620179 -1.13646,5.587611 0,2.967432 1.13646,5.587612 1.13647,2.588611 3.09371,4.545853 1.95724,1.957243 4.57742,3.093706 2.62018,1.136463 5.61918,1.136463 2.96743,0 5.58761,-1.136463 2.65175,-1.136463 4.57742,-3.093706 1.95725,-1.957242 3.09371,-4.545853 1.13646,-2.62018 1.13646,-5.587612 z"
       style="font-style:normal;font-variant:normal;font-weight:normal;font-stretch:normal;font-size:64.65213776px;font-family:Righteous;-inkscape-font-specification:Righteous;stroke-width:1.01018965"
       id="path825" />
    <path
       d="M 171.79537,27.748648 V 18.68851 q 0,-1.862538 -0.72607,-3.504096 -0.6945,-1.673126 -1.92567,-2.904295 -1.23117,-1.231169 -2.9043,-1.925674 -1.64156,-0.7260738 -3.50409,-0.7260738 -1.86254,0 -3.53567,0.7260738 -1.64156,0.694505 -2.87272,1.925674 -1.23117,1.231169 -1.95725,2.904295 -0.6945,1.641558 -0.6945,3.504096 v 9.060138 z m 9.06014,18.088709 h -9.06014 V 36.777218 H 153.6751 v 9.060139 h -9.02857 V 18.68851 q 0,-3.756643 1.42058,-7.039759 1.42058,-3.3146853 3.85134,-5.7770226 2.46234,-2.4623372 5.74546,-3.8829164 3.31468,-1.42057923 7.07133,-1.42057923 3.75664,0 7.03976,1.42057923 3.31468,1.4205792 5.77702,3.8829164 2.46233,2.4623373 3.88291,5.7770226 1.42058,3.283116 1.42058,7.039759 z"
       style="font-style:normal;font-variant:normal;font-weight:normal;font-stretch:normal;font-size:64.65213776px;font-family:Righteous;-inkscape-font-specification:Righteous;stroke-width:1.01018965"
       id="path827" />
    <path
       d="m 220.41076,45.837357 h -31.6947 V 0.56823277 h 9.06014 V 36.777218 h 22.63456 z"
       style="font-style:normal;font-variant:normal;font-weight:normal;font-stretch:normal;font-size:64.65213776px;font-family:Righteous;-inkscape-font-specification:Righteous;stroke-width:1.01018965"
       id="path829" />
  </g>
  <text
     xml:space="preserve"
     style="font-style:normal;font-weight:normal;font-size:40px;line-height:1.25;font-family:sans-serif;letter-spacing:0px;word-spacing:0px;fill:#000000;fill-opacity:1;stroke:none"
     x="284.01825"
     y="0.20547485"
     id="text16"><tspan
       sodipodi:role="line"
       id="tspan14"
       x="284.01825"
       y="35.5961" /></text>
</svg>
